<?xml version="1.0" standalone="no"?>
<!DOCTYPE svg PUBLIC "-//W3C//DTD SVG 1.1//EN" "http://www.w3.org/Graphics/SVG/1.1/DTD/svg11.dtd">
<svg xmlns="http://www.w3.org/2000/svg" xmlns:svg="http://www.w3.org/2000/svg" width="29.606956481933594" height="19.110559463500977" viewBox="0 0 29.606956 19.110559" version="1.1" id="svg1" xml:space="preserve"><defs id="defs1"/><g id="layer1" transform="translate(-39.945668,-132.28535)"><g id="g57" transform="matrix(0.26458333,0,0,0.26458333,23.700252,127.94452)">
	
	<path class="st1" d="m 134.8,44.2 c -15,18.7 -22.9,37 -17.6,40.8 5.3,3.8 21.9,-8.3 36.9,-27.1 15,-18.7 22.9,-37 17.5,-40.8 -5.2,-3.8 -21.7,8.4 -36.8,27.1 z m -2.5,2.7 c -15,18.7 -22.8,37.1 -17.3,41 5.5,3.9 22.1,-8.1 37.2,-26.9 15,-18.7 22.8,-37.1 17.3,-41 -5.5,-3.9 -22.2,8.1 -37.2,26.9 z" id="path1"/>
	<g id="g2">
		<polygon class="st2" points="163.1,50.5 164.3,55.5 159.9,52.8 155.5,55.5 156.8,50.5 152.7,46.8 158,46.8 159.9,42 161.9,46.8 167,46.8 " id="polygon2"/>
	</g>
	<path class="st3" d="m 135.7,63.8 v -25 H 149 v 1.4 h -11.5 v 9.9 h 10.7 v 1.4 h -10.7 v 10.8 h 11.9 v 1.4 h -13.7 z m -17.9,0 v -25 h 1.8 v 23.4 h 11.9 v 1.5 h -13.7 z m -9.1,0 v -25 h 1.8 v 25 z m -13.1,0.6 c -7.9,0 -10,-6.4 -10,-13.1 0,-7.7 2.8,-12.9 10.3,-12.9 1.7,0 3.7,0.4 5.5,0.9 l -0.7,1.6 c -1.5,-0.7 -3.1,-1.1 -4.8,-1.1 -6.1,0 -8.5,4.2 -8.5,11.4 0,6 1.5,11.7 8.2,11.7 1.9,0 3.9,-1 5.5,-1.8 v -7.8 h -5.5 v -1.4 h 7.1 v 10.3 c -2.5,1.3 -4.4,2.2 -7.1,2.2 z m -23.5,-23 -5.2,13.2 h 10 z M 80.2,63.8 77.3,56 h -11 l -3.1,7.8 h -1.8 l 10.2,-25 h 1.2 l 9.4,25 z" id="path2"/>
	
</g></g><style type="text/css" id="style1">
	.st0{fill:#014F9B;}
	.st1{fill-rule:evenodd;clip-rule:evenodd;fill:#FDC520;}
	.st2{fill-rule:evenodd;clip-rule:evenodd;fill:#FBCA30;}
	.st3{fill-rule:evenodd;clip-rule:evenodd;fill:#FFFFFF;}
	.st4{fill:#FFFFFF;}
	.st5{fill:#FBCA30;}
</style></svg>